<svg xmlns="http://www.w3.org/2000/svg" width="31" height="32" viewBox="0 0 31 32" fill="none">
  <path d="M18.6305 21.4494C23.2779 21.4494 27.0454 17.5677 27.0454 12.7794C27.0454 7.99112 23.2779 4.10943 18.6305 4.10943C13.983 4.10943 10.2155 7.99112 10.2155 12.7794C10.2155 17.5677 13.983 21.4494 18.6305 21.4494ZM11.6352 22.2257C11.5918 22.285 11.5439 22.3418 11.4915 22.3958L3.49819 30.6314C2.88963 31.2584 1.90294 31.2584 1.29438 30.6314C0.68581 30.0044 0.68581 28.9878 1.29438 28.3608L9.28771 20.1252C9.34054 20.0708 9.39621 20.0211 9.45424 19.9761C7.97638 17.9789 7.09878 15.4847 7.09878 12.7794C7.09878 6.21767 12.2617 0.898315 18.6305 0.898315C24.9992 0.898315 30.1621 6.21767 30.1621 12.7794C30.1621 19.3412 24.9992 24.6605 18.6305 24.6605C16.0001 24.6605 13.5754 23.7532 11.6352 22.2257Z" fill="white"/>
</svg>
